<svg width="40" height="40" viewBox="0 0 40 40" fill="none" xmlns="http://www.w3.org/2000/svg">
<rect width="40" height="40" rx="20" fill="white"/>
<path d="M20 16.28C19.2643 16.28 18.545 16.4982 17.9333 16.9069C17.3215 17.3157 16.8447 17.8967 16.5632 18.5764C16.2816 19.2562 16.2079 20.0041 16.3515 20.7257C16.495 21.4473 16.8493 22.1102 17.3696 22.6304C17.8898 23.1507 18.5527 23.505 19.2743 23.6485C19.9959 23.7921 20.7438 23.7184 21.4236 23.4368C22.1033 23.1553 22.6843 22.6785 23.0931 22.0667C23.5018 21.455 23.72 20.7357 23.72 20C23.72 19.5115 23.6238 19.0277 23.4368 18.5764C23.2499 18.1251 22.9759 17.715 22.6304 17.3696C22.285 17.0241 21.8749 16.7501 21.4236 16.5632C20.9723 16.3762 20.4885 16.28 20 16.28ZM34.895 12.605C34.8871 11.4466 34.6738 10.2989 34.265 9.215C33.9639 8.42189 33.4981 7.70164 32.8982 7.10178C32.2984 6.50192 31.5781 6.03608 30.785 5.735C29.7011 5.3262 28.5534 5.11289 27.395 5.105C25.46 5 24.89 5 20 5C15.11 5 14.54 5 12.605 5.105C11.4466 5.11289 10.2989 5.3262 9.215 5.735C8.42189 6.03608 7.70164 6.50192 7.10178 7.10178C6.50192 7.70164 6.03608 8.42189 5.735 9.215C5.3262 10.2989 5.11289 11.4466 5.105 12.605C5 14.54 5 15.11 5 20C5 24.89 5 25.46 5.105 27.395C5.12115 28.5574 5.33416 29.7087 5.735 30.8C6.03474 31.5895 6.50019 32.3056 7.1 32.9C7.69729 33.5035 8.41908 33.9693 9.215 34.265C10.2989 34.6738 11.4466 34.8871 12.605 34.895C14.54 35 15.11 35 20 35C24.89 35 25.46 35 27.395 34.895C28.5534 34.8871 29.7011 34.6738 30.785 34.265C31.5809 33.9693 32.3027 33.5035 32.9 32.9C33.4998 32.3056 33.9653 31.5895 34.265 30.8C34.6734 29.7108 34.8867 28.5582 34.895 27.395C35 25.46 35 24.89 35 20C35 15.11 35 14.54 34.895 12.605ZM31.085 24.605C31.0369 25.5307 30.8393 26.4424 30.5 27.305C30.2088 28.0245 29.7759 28.6782 29.227 29.227C28.6782 29.7759 28.0245 30.2088 27.305 30.5C26.4343 30.8204 25.5174 30.9977 24.59 31.025H15.41C14.4826 30.9977 13.5657 30.8204 12.695 30.5C11.9512 30.2236 11.2794 29.7826 10.73 29.21C10.1865 28.6719 9.76677 28.0218 9.5 27.305C9.17834 26.4352 9.00591 25.5173 8.99 24.59V15.41C9.00591 14.4827 9.17834 13.5648 9.5 12.695C9.77642 11.9512 10.2174 11.2794 10.79 10.73C11.3305 10.1894 11.9799 9.77014 12.695 9.5C13.5657 9.17961 14.4826 9.00231 15.41 8.975H24.59C25.5174 9.00231 26.4343 9.17961 27.305 9.5C28.0488 9.77642 28.7206 10.2174 29.27 10.79C29.8135 11.3281 30.2332 11.9782 30.5 12.695C30.8204 13.5657 30.9977 14.4826 31.025 15.41V20C31.025 23.09 31.13 23.405 31.085 24.59V24.605ZM28.685 13.445C28.5064 12.9605 28.2248 12.5205 27.8597 12.1553C27.4945 11.7902 27.0545 11.5086 26.57 11.33C25.9047 11.0994 25.204 10.9877 24.5 11H15.5C14.7924 11.0069 14.0916 11.139 13.43 11.39C12.9529 11.5605 12.5175 11.8306 12.1529 12.1823C11.7882 12.534 11.5026 12.9594 11.315 13.43C11.0972 14.0981 10.9907 14.7974 11 15.5V24.5C11.0149 25.2068 11.1467 25.9063 11.39 26.57C11.5686 27.0545 11.8502 27.4945 12.2153 27.8597C12.5805 28.2248 13.0205 28.5064 13.505 28.685C14.145 28.9204 14.8185 29.052 15.5 29.075H24.5C25.2076 29.0681 25.9084 28.9361 26.57 28.685C27.0545 28.5064 27.4945 28.2248 27.8597 27.8597C28.2248 27.4945 28.5064 27.0545 28.685 26.57C28.9361 25.9084 29.0681 25.2076 29.075 24.5V15.5C29.0754 14.7917 28.9432 14.0896 28.685 13.43V13.445ZM20 25.73C19.2482 25.73 18.5038 25.5817 17.8095 25.2935C17.1151 25.0054 16.4845 24.5831 15.9536 24.0508C15.4227 23.5185 15.002 22.8868 14.7157 22.1916C14.4294 21.4965 14.283 20.7518 14.285 20C14.285 18.8661 14.6214 17.7576 15.2517 16.815C15.882 15.8724 16.7778 15.138 17.8257 14.7048C18.8736 14.2715 20.0265 14.1589 21.1384 14.3812C22.2503 14.6035 23.2713 15.1508 24.072 15.9536C24.8728 16.7565 25.4173 17.7789 25.6367 18.8914C25.8561 20.0039 25.7405 21.1564 25.3045 22.2032C24.8685 23.2499 24.1318 24.1438 23.1875 24.7716C22.2432 25.3994 21.1339 25.733 20 25.73ZM26 15.395C25.6684 15.3599 25.3615 15.2033 25.1385 14.9555C24.9155 14.7076 24.7921 14.3859 24.7921 14.0525C24.7921 13.7191 24.9155 13.3974 25.1385 13.1495C25.3615 12.9017 25.6684 12.7451 26 12.71C26.3316 12.7451 26.6385 12.9017 26.8615 13.1495C27.0845 13.3974 27.2079 13.7191 27.2079 14.0525C27.2079 14.3859 27.0845 14.7076 26.8615 14.9555C26.6385 15.2033 26.3316 15.3599 26 15.395Z" fill="black"/>
</svg>
