<svg width="50" height="50" viewBox="0 0 50 50" fill="none" xmlns="http://www.w3.org/2000/svg">
<rect width="50" height="50" rx="25" fill="white"/>
<path d="M25 21.28C24.2643 21.28 23.545 21.4982 22.9333 21.9069C22.3215 22.3157 21.8447 22.8967 21.5632 23.5764C21.2816 24.2562 21.2079 25.0041 21.3515 25.7257C21.495 26.4473 21.8493 27.1102 22.3696 27.6304C22.8898 28.1507 23.5527 28.505 24.2743 28.6485C24.9959 28.7921 25.7438 28.7184 26.4236 28.4368C27.1033 28.1553 27.6843 27.6785 28.0931 27.0667C28.5018 26.455 28.72 25.7357 28.72 25C28.72 24.5115 28.6238 24.0277 28.4368 23.5764C28.2499 23.1251 27.9759 22.715 27.6304 22.3696C27.285 22.0241 26.8749 21.7501 26.4236 21.5632C25.9723 21.3762 25.4885 21.28 25 21.28ZM39.895 17.605C39.8871 16.4466 39.6738 15.2989 39.265 14.215C38.9639 13.4219 38.4981 12.7016 37.8982 12.1018C37.2984 11.5019 36.5781 11.0361 35.785 10.735C34.7011 10.3262 33.5534 10.1129 32.395 10.105C30.46 10 29.89 10 25 10C20.11 10 19.54 10 17.605 10.105C16.4466 10.1129 15.2989 10.3262 14.215 10.735C13.4219 11.0361 12.7016 11.5019 12.1018 12.1018C11.5019 12.7016 11.0361 13.4219 10.735 14.215C10.3262 15.2989 10.1129 16.4466 10.105 17.605C10 19.54 10 20.11 10 25C10 29.89 10 30.46 10.105 32.395C10.1211 33.5574 10.3342 34.7087 10.735 35.8C11.0347 36.5895 11.5002 37.3056 12.1 37.9C12.6973 38.5035 13.4191 38.9693 14.215 39.265C15.2989 39.6738 16.4466 39.8871 17.605 39.895C19.54 40 20.11 40 25 40C29.89 40 30.46 40 32.395 39.895C33.5534 39.8871 34.7011 39.6738 35.785 39.265C36.5809 38.9693 37.3027 38.5035 37.9 37.9C38.4998 37.3056 38.9653 36.5895 39.265 35.8C39.6734 34.7108 39.8867 33.5582 39.895 32.395C40 30.46 40 29.89 40 25C40 20.11 40 19.54 39.895 17.605ZM36.085 29.605C36.0369 30.5307 35.8393 31.4424 35.5 32.305C35.2088 33.0245 34.7759 33.6782 34.227 34.227C33.6782 34.7759 33.0245 35.2088 32.305 35.5C31.4343 35.8204 30.5174 35.9977 29.59 36.025H20.41C19.4826 35.9977 18.5657 35.8204 17.695 35.5C16.9512 35.2236 16.2794 34.7826 15.73 34.21C15.1865 33.6719 14.7668 33.0218 14.5 32.305C14.1783 31.4352 14.0059 30.5173 13.99 29.59V20.41C14.0059 19.4827 14.1783 18.5648 14.5 17.695C14.7764 16.9512 15.2174 16.2794 15.79 15.73C16.3305 15.1894 16.9799 14.7701 17.695 14.5C18.5657 14.1796 19.4826 14.0023 20.41 13.975H29.59C30.5174 14.0023 31.4343 14.1796 32.305 14.5C33.0488 14.7764 33.7206 15.2174 34.27 15.79C34.8135 16.3281 35.2332 16.9782 35.5 17.695C35.8204 18.5657 35.9977 19.4826 36.025 20.41V25C36.025 28.09 36.13 28.405 36.085 29.59V29.605ZM33.685 18.445C33.5064 17.9605 33.2248 17.5205 32.8597 17.1553C32.4945 16.7902 32.0545 16.5086 31.57 16.33C30.9047 16.0994 30.204 15.9877 29.5 16H20.5C19.7924 16.0069 19.0916 16.139 18.43 16.39C17.9529 16.5605 17.5175 16.8306 17.1529 17.1823C16.7882 17.534 16.5026 17.9594 16.315 18.43C16.0972 19.0981 15.9907 19.7974 16 20.5V29.5C16.0149 30.2068 16.1467 30.9063 16.39 31.57C16.5686 32.0545 16.8502 32.4945 17.2153 32.8597C17.5805 33.2248 18.0205 33.5064 18.505 33.685C19.145 33.9204 19.8185 34.052 20.5 34.075H29.5C30.2076 34.0681 30.9084 33.9361 31.57 33.685C32.0545 33.5064 32.4945 33.2248 32.8597 32.8597C33.2248 32.4945 33.5064 32.0545 33.685 31.57C33.9361 30.9084 34.0681 30.2076 34.075 29.5V20.5C34.0754 19.7917 33.9432 19.0896 33.685 18.43V18.445ZM25 30.73C24.2482 30.73 23.5038 30.5817 22.8095 30.2935C22.1151 30.0054 21.4845 29.5831 20.9536 29.0508C20.4227 28.5185 20.002 27.8868 19.7157 27.1916C19.4294 26.4965 19.283 25.7518 19.285 25C19.285 23.8661 19.6214 22.7576 20.2517 21.815C20.882 20.8724 21.7778 20.138 22.8257 19.7048C23.8736 19.2715 25.0265 19.1589 26.1384 19.3812C27.2503 19.6035 28.2713 20.1508 29.072 20.9536C29.8728 21.7565 30.4173 22.7789 30.6367 23.8914C30.8561 25.0039 30.7405 26.1564 30.3045 27.2032C29.8685 28.2499 29.1318 29.1438 28.1875 29.7716C27.2432 30.3994 26.1339 30.733 25 30.73ZM31 20.395C30.6684 20.3599 30.3615 20.2033 30.1385 19.9555C29.9155 19.7076 29.7921 19.3859 29.7921 19.0525C29.7921 18.7191 29.9155 18.3974 30.1385 18.1495C30.3615 17.9017 30.6684 17.7451 31 17.71C31.3316 17.7451 31.6385 17.9017 31.8615 18.1495C32.0845 18.3974 32.2079 18.7191 32.2079 19.0525C32.2079 19.3859 32.0845 19.7076 31.8615 19.9555C31.6385 20.2033 31.3316 20.3599 31 20.395Z" fill="#6F3891"/>
</svg>
