<svg width="50" height="50" viewBox="0 0 50 50" fill="none" xmlns="http://www.w3.org/2000/svg">
<rect width="50" height="50" rx="25" fill="white"/>
<path fill-rule="evenodd" clip-rule="evenodd" d="M14.0244 10C12.9571 10 11.9334 10.424 11.1787 11.1787C10.424 11.9334 10 12.9571 10 14.0244C10 15.0917 10.424 16.1153 11.1787 16.8701C11.9334 17.6248 12.9571 18.0488 14.0244 18.0488C15.0917 18.0488 16.1153 17.6248 16.8701 16.8701C17.6248 16.1153 18.0488 15.0917 18.0488 14.0244C18.0488 12.9571 17.6248 11.9334 16.8701 11.1787C16.1153 10.424 15.0917 10 14.0244 10ZM12.1951 14.0244C12.1951 13.5392 12.3878 13.074 12.7309 12.7309C13.074 12.3878 13.5392 12.1951 14.0244 12.1951C14.5095 12.1951 14.9748 12.3878 15.3179 12.7309C15.6609 13.074 15.8537 13.5392 15.8537 14.0244C15.8537 14.5095 15.6609 14.9748 15.3179 15.3179C14.9748 15.6609 14.5095 15.8537 14.0244 15.8537C13.5392 15.8537 13.074 15.6609 12.7309 15.3179C12.3878 14.9748 12.1951 14.5095 12.1951 14.0244ZM10 19.878C10 19.587 10.1156 19.3078 10.3215 19.102C10.5273 18.8961 10.8065 18.7805 11.0976 18.7805H16.9512C17.2423 18.7805 17.5215 18.8961 17.7273 19.102C17.9331 19.3078 18.0488 19.587 18.0488 19.878V38.9024C18.0488 39.1935 17.9331 39.4727 17.7273 39.6785C17.5215 39.8844 17.2423 40 16.9512 40H11.0976C10.8065 40 10.5273 39.8844 10.3215 39.6785C10.1156 39.4727 10 39.1935 10 38.9024V19.878ZM12.1951 20.9756V37.8049H15.8537V20.9756H12.1951ZM20.2439 19.878C20.2439 19.587 20.3595 19.3078 20.5654 19.102C20.7712 18.8961 21.0504 18.7805 21.3415 18.7805H27.1951C27.4862 18.7805 27.7654 18.8961 27.9712 19.102C28.177 19.3078 28.2927 19.587 28.2927 19.878V20.5132L28.9293 20.2395C30.0269 19.7705 31.1913 19.4766 32.38 19.3688C36.441 19 40 22.1902 40 26.2878V38.9024C40 39.1935 39.8844 39.4727 39.6785 39.6785C39.4727 39.8844 39.1935 40 38.9024 40H33.0488C32.7577 40 32.4785 39.8844 32.2727 39.6785C32.0669 39.4727 31.9512 39.1935 31.9512 38.9024V28.6585C31.9512 28.1734 31.7585 27.7081 31.4154 27.365C31.0724 27.022 30.6071 26.8293 30.122 26.8293C29.6368 26.8293 29.1715 27.022 28.8285 27.365C28.4854 27.7081 28.2927 28.1734 28.2927 28.6585V38.9024C28.2927 39.1935 28.177 39.4727 27.9712 39.6785C27.7654 39.8844 27.4862 40 27.1951 40H21.3415C21.0504 40 20.7712 39.8844 20.5654 39.6785C20.3595 39.4727 20.2439 39.1935 20.2439 38.9024V19.878ZM22.439 20.9756V37.8049H26.0976V28.6585C26.0976 27.5912 26.5216 26.5676 27.2763 25.8129C28.031 25.0581 29.0546 24.6341 30.122 24.6341C31.1893 24.6341 32.2129 25.0581 32.9676 25.8129C33.7223 26.5676 34.1463 27.5912 34.1463 28.6585V37.8049H37.8049V26.2878C37.8049 23.5015 35.3741 21.3005 32.5805 21.5551C31.6207 21.6424 30.6806 21.8795 29.7941 22.2576L27.6283 23.1868C27.4612 23.2586 27.279 23.2877 27.0979 23.2716C26.9168 23.2555 26.7425 23.1947 26.5908 23.0945C26.439 22.9944 26.3145 22.8582 26.2284 22.698C26.1423 22.5379 26.0973 22.3589 26.0976 22.1771V20.9756H22.439Z" fill="#6F3891"/>
</svg>
