<svg width="40" height="40" viewBox="0 0 40 40" fill="none" xmlns="http://www.w3.org/2000/svg">
<rect width="40" height="40" rx="20" fill="white"/>
<path fill-rule="evenodd" clip-rule="evenodd" d="M9.02439 5C7.95706 5 6.93344 5.424 6.17872 6.17872C5.424 6.93344 5 7.95706 5 9.02439C5 10.0917 5.424 11.1153 6.17872 11.8701C6.93344 12.6248 7.95706 13.0488 9.02439 13.0488C10.0917 13.0488 11.1153 12.6248 11.8701 11.8701C12.6248 11.1153 13.0488 10.0917 13.0488 9.02439C13.0488 7.95706 12.6248 6.93344 11.8701 6.17872C11.1153 5.424 10.0917 5 9.02439 5ZM7.19512 9.02439C7.19512 8.53924 7.38785 8.07396 7.7309 7.7309C8.07396 7.38785 8.53924 7.19512 9.02439 7.19512C9.50954 7.19512 9.97482 7.38785 10.3179 7.7309C10.6609 8.07396 10.8537 8.53924 10.8537 9.02439C10.8537 9.50954 10.6609 9.97482 10.3179 10.3179C9.97482 10.6609 9.50954 10.8537 9.02439 10.8537C8.53924 10.8537 8.07396 10.6609 7.7309 10.3179C7.38785 9.97482 7.19512 9.50954 7.19512 9.02439ZM5 14.878C5 14.587 5.11564 14.3078 5.32147 14.102C5.5273 13.8961 5.80647 13.7805 6.09756 13.7805H11.9512C12.2423 13.7805 12.5215 13.8961 12.7273 14.102C12.9331 14.3078 13.0488 14.587 13.0488 14.878V33.9024C13.0488 34.1935 12.9331 34.4727 12.7273 34.6785C12.5215 34.8844 12.2423 35 11.9512 35H6.09756C5.80647 35 5.5273 34.8844 5.32147 34.6785C5.11564 34.4727 5 34.1935 5 33.9024V14.878ZM7.19512 15.9756V32.8049H10.8537V15.9756H7.19512ZM15.2439 14.878C15.2439 14.587 15.3595 14.3078 15.5654 14.102C15.7712 13.8961 16.0504 13.7805 16.3415 13.7805H22.1951C22.4862 13.7805 22.7654 13.8961 22.9712 14.102C23.177 14.3078 23.2927 14.587 23.2927 14.878V15.5132L23.9293 15.2395C25.0269 14.7705 26.1913 14.4766 27.38 14.3688C31.441 14 35 17.1902 35 21.2878V33.9024C35 34.1935 34.8844 34.4727 34.6785 34.6785C34.4727 34.8844 34.1935 35 33.9024 35H28.0488C27.7577 35 27.4785 34.8844 27.2727 34.6785C27.0669 34.4727 26.9512 34.1935 26.9512 33.9024V23.6585C26.9512 23.1734 26.7585 22.7081 26.4154 22.365C26.0724 22.022 25.6071 21.8293 25.122 21.8293C24.6368 21.8293 24.1715 22.022 23.8285 22.365C23.4854 22.7081 23.2927 23.1734 23.2927 23.6585V33.9024C23.2927 34.1935 23.177 34.4727 22.9712 34.6785C22.7654 34.8844 22.4862 35 22.1951 35H16.3415C16.0504 35 15.7712 34.8844 15.5654 34.6785C15.3595 34.4727 15.2439 34.1935 15.2439 33.9024V14.878ZM17.439 15.9756V32.8049H21.0976V23.6585C21.0976 22.5912 21.5216 21.5676 22.2763 20.8129C23.031 20.0581 24.0546 19.6341 25.122 19.6341C26.1893 19.6341 27.2129 20.0581 27.9676 20.8129C28.7223 21.5676 29.1463 22.5912 29.1463 23.6585V32.8049H32.8049V21.2878C32.8049 18.5015 30.3741 16.3005 27.5805 16.5551C26.6207 16.6424 25.6806 16.8795 24.7941 17.2576L22.6283 18.1868C22.4612 18.2586 22.279 18.2877 22.0979 18.2716C21.9168 18.2555 21.7425 18.1947 21.5908 18.0945C21.439 17.9944 21.3145 17.8582 21.2284 17.698C21.1423 17.5379 21.0973 17.3589 21.0976 17.1771V15.9756H17.439Z" fill="#474747"/>
</svg>
