<svg width="18" height="19" viewBox="0 0 18 19" fill="none" xmlns="http://www.w3.org/2000/svg">
<path d="M12 9.2876H14C14 7.96152 13.4732 6.68975 12.5355 5.75206C11.5979 4.81438 10.3261 4.2876 9 4.2876V6.2876C9.79565 6.2876 10.5587 6.60367 11.1213 7.16628C11.6839 7.72889 12 8.49195 12 9.2876ZM16 9.2876H18C18 4.2876 13.97 0.287598 9 0.287598V2.2876C12.86 2.2876 16 5.4176 16 9.2876ZM17 12.7876C15.75 12.7876 14.55 12.5876 13.43 12.2176C13.08 12.1076 12.69 12.1876 12.41 12.4676L10.21 14.6676C7.37331 13.2209 5.06671 10.9143 3.62 8.0776L5.82 5.8776C6.1 5.5976 6.18 5.2076 6.07 4.8576C5.69065 3.70565 5.49821 2.50039 5.5 1.2876C5.5 1.02238 5.39464 0.768027 5.20711 0.580491C5.01957 0.392954 4.76522 0.287598 4.5 0.287598H1C0.734784 0.287598 0.48043 0.392954 0.292893 0.580491C0.105357 0.768027 0 1.02238 0 1.2876C0 5.79628 1.79107 10.1203 4.97918 13.3084C8.1673 16.4965 12.4913 18.2876 17 18.2876C17.2652 18.2876 17.5196 18.1822 17.7071 17.9947C17.8946 17.8072 18 17.5528 18 17.2876V13.7876C18 13.5224 17.8946 13.268 17.7071 13.0805C17.5196 12.893 17.2652 12.7876 17 12.7876Z" fill="black"/>
</svg>
