<svg width="40" height="40" viewBox="0 0 40 40" fill="none" xmlns="http://www.w3.org/2000/svg">
<rect width="40" height="40" rx="20" fill="white"/>
<path fill-rule="evenodd" clip-rule="evenodd" d="M30.63 9.36024C29.2458 7.9738 27.5991 6.87452 25.7851 6.12608C23.9712 5.37764 22.0261 4.99491 20.0625 5.00005C11.8312 5.00005 5.125 11.6697 5.125 19.8638C5.11876 22.4729 5.8062 25.0372 7.1175 27.2963L5 35L12.92 32.9294C15.11 34.117 17.5637 34.7403 20.0575 34.7424H20.0638C28.2963 34.7424 34.995 28.074 35 19.8737C35 15.903 33.4475 12.17 30.63 9.359V9.36024ZM20.0625 32.2301H20.0575C17.8344 32.2301 15.6522 31.6357 13.7388 30.5092L13.285 30.2416L8.5825 31.4673L9.8375 26.9068L9.545 26.4401C8.30075 24.4705 7.64202 22.1905 7.645 19.8638C7.645 13.0547 13.2163 7.51363 20.0675 7.51363C21.698 7.50958 23.3132 7.82753 24.8194 8.44909C26.3256 9.07064 27.6931 9.98346 28.8425 11.1347C29.9976 12.2804 30.9132 13.6426 31.5365 15.1425C32.1598 16.6425 32.4783 18.2505 32.4738 19.8737C32.4738 26.689 26.9037 32.2301 20.0625 32.2301ZM26.8688 22.9746C26.4975 22.7905 24.6613 21.8921 24.32 21.7701C23.9788 21.6432 23.7288 21.5847 23.48 21.9543C23.23 22.3276 22.5175 23.165 22.2988 23.4126C22.0838 23.6553 21.8638 23.6901 21.4925 23.5047C21.1175 23.3206 19.9163 22.9261 18.49 21.6581C17.3813 20.6751 16.63 19.4556 16.415 19.0861C16.195 18.7127 16.39 18.5137 16.5763 18.327C16.7463 18.1627 16.9513 17.8952 17.1375 17.6762C17.3225 17.4634 17.3875 17.3079 17.5125 17.059C17.635 16.8114 17.5725 16.5924 17.4788 16.4082C17.3862 16.2241 16.64 14.3911 16.3275 13.647C16.0238 12.9228 15.7163 13.0248 15.4875 13.0112C15.2725 13.0012 15.0238 13.0012 14.775 13.0012C14.525 13.0012 14.12 13.0933 13.7775 13.4678C13.4363 13.8374 12.4738 14.7371 12.4738 16.5638C12.4738 18.3917 13.8113 20.1599 13.9988 20.4088C14.1838 20.6514 16.63 24.4031 20.3738 26.0133C21.0675 26.312 21.7768 26.5733 22.4988 26.796C23.3925 27.0772 24.2075 27.0387 24.8525 26.9453C25.57 26.8396 27.0588 26.0469 27.3713 25.1771C27.68 24.3123 27.68 23.5682 27.5863 23.4126C27.4938 23.2571 27.245 23.1638 26.8688 22.9746Z" fill="black"/>
</svg>
