<svg width="50" height="50" viewBox="0 0 50 50" fill="none" xmlns="http://www.w3.org/2000/svg">
<rect width="50" height="50" rx="25" fill="white"/>
<path fill-rule="evenodd" clip-rule="evenodd" d="M35.63 14.3602C34.2458 12.9738 32.5991 11.8745 30.7851 11.1261C28.9712 10.3776 27.0261 9.99491 25.0625 10.0001C16.8312 10.0001 10.125 16.6697 10.125 24.8638C10.1188 27.4729 10.8062 30.0372 12.1175 32.2963L10 40L17.92 37.9294C20.11 39.117 22.5637 39.7403 25.0575 39.7424H25.0638C33.2963 39.7424 39.995 33.074 40 24.8737C40 20.903 38.4475 17.17 35.63 14.359V14.3602ZM25.0625 37.2301H25.0575C22.8344 37.2301 20.6522 36.6357 18.7388 35.5092L18.285 35.2416L13.5825 36.4673L14.8375 31.9068L14.545 31.4401C13.3007 29.4705 12.642 27.1905 12.645 24.8638C12.645 18.0547 18.2163 12.5136 25.0675 12.5136C26.698 12.5096 28.3132 12.8275 29.8194 13.4491C31.3256 14.0706 32.6931 14.9835 33.8425 16.1347C34.9976 17.2804 35.9132 18.6426 36.5365 20.1425C37.1598 21.6425 37.4783 23.2505 37.4738 24.8737C37.4738 31.689 31.9037 37.2301 25.0625 37.2301ZM31.8688 27.9746C31.4975 27.7905 29.6613 26.8921 29.32 26.7701C28.9788 26.6432 28.7288 26.5847 28.48 26.9543C28.23 27.3276 27.5175 28.165 27.2988 28.4126C27.0838 28.6553 26.8638 28.6901 26.4925 28.5047C26.1175 28.3206 24.9163 27.9261 23.49 26.6581C22.3813 25.6751 21.63 24.4556 21.415 24.0861C21.195 23.7127 21.39 23.5137 21.5763 23.327C21.7463 23.1627 21.9513 22.8952 22.1375 22.6762C22.3225 22.4634 22.3875 22.3079 22.5125 22.059C22.635 21.8114 22.5725 21.5924 22.4788 21.4082C22.3862 21.2241 21.64 19.3911 21.3275 18.647C21.0238 17.9228 20.7163 18.0248 20.4875 18.0112C20.2725 18.0012 20.0238 18.0012 19.775 18.0012C19.525 18.0012 19.12 18.0933 18.7775 18.4678C18.4363 18.8374 17.4738 19.7371 17.4738 21.5638C17.4738 23.3917 18.8113 25.1599 18.9988 25.4088C19.1838 25.6514 21.63 29.4031 25.3738 31.0133C26.0675 31.312 26.7768 31.5733 27.4988 31.796C28.3925 32.0772 29.2075 32.0387 29.8525 31.9453C30.57 31.8396 32.0588 31.0469 32.3713 30.1771C32.68 29.3123 32.68 28.5682 32.5863 28.4126C32.4938 28.2571 32.245 28.1638 31.8688 27.9746Z" fill="#6F3891"/>
</svg>
